<svg xmlns="http://www.w3.org/2000/svg" viewBox="0 0 32 32" width="32" height="32">
  <rect width="32" height="32" rx="6" fill="#09090b"/>
  <!-- Row 0: kick -->
  <rect x="3"  y="3"  width="5" height="5" rx="1" fill="#6366f1"/>
  <rect x="10" y="3"  width="5" height="5" rx="1" fill="#3f3f46"/>
  <rect x="17" y="3"  width="5" height="5" rx="1" fill="#6366f1"/>
  <rect x="24" y="3"  width="5" height="5" rx="1" fill="#3f3f46"/>
  <!-- Row 1: snare -->
  <rect x="3"  y="10" width="5" height="5" rx="1" fill="#3f3f46"/>
  <rect x="10" y="10" width="5" height="5" rx="1" fill="#6366f1"/>
  <rect x="17" y="10" width="5" height="5" rx="1" fill="#3f3f46"/>
  <rect x="24" y="10" width="5" height="5" rx="1" fill="#6366f1"/>
  <!-- Row 2: hi-hat -->
  <rect x="3"  y="17" width="5" height="5" rx="1" fill="#6366f1"/>
  <rect x="10" y="17" width="5" height="5" rx="1" fill="#6366f1"/>
  <rect x="17" y="17" width="5" height="5" rx="1" fill="#3f3f46"/>
  <rect x="24" y="17" width="5" height="5" rx="1" fill="#6366f1"/>
  <!-- Row 3: perc -->
  <rect x="3"  y="24" width="5" height="5" rx="1" fill="#3f3f46"/>
  <rect x="10" y="24" width="5" height="5" rx="1" fill="#3f3f46"/>
  <rect x="17" y="24" width="5" height="5" rx="1" fill="#6366f1"/>
  <rect x="24" y="24" width="5" height="5" rx="1" fill="#3f3f46"/>
</svg>
